<?xml version="1.0" encoding="UTF-8" standalone="no"?>
<svg
   height="384.20001"
   id="Layer_1"
   version="1.1"
   viewBox="0 0 384.20001 384.20001"
   width="384.20001"
   xml:space="preserve"
   sodipodi:docname="close-icon.svg"
   inkscape:version="1.3.1 (91b66b0783, 2023-11-16)"
   xmlns:inkscape="http://www.inkscape.org/namespaces/inkscape"
   xmlns:sodipodi="http://sodipodi.sourceforge.net/DTD/sodipodi-0.dtd"
   xmlns="http://www.w3.org/2000/svg"
   xmlns:svg="http://www.w3.org/2000/svg"><defs
     id="defs1" /><sodipodi:namedview
     id="namedview1"
     pagecolor="#ffffff"
     bordercolor="#000000"
     borderopacity="0.25"
     inkscape:showpageshadow="2"
     inkscape:pageopacity="0.0"
     inkscape:pagecheckerboard="0"
     inkscape:deskcolor="#d1d1d1"
     inkscape:zoom="1.5371094"
     inkscape:cx="191.91868"
     inkscape:cy="191.59339"
     inkscape:window-width="1920"
     inkscape:window-height="1001"
     inkscape:window-x="-9"
     inkscape:window-y="-9"
     inkscape:window-maximized="1"
     inkscape:current-layer="Layer_1" /><path
     d="m 379.75001,322.9 -131.2,-131.7 131.5,-130 c 5.4,-5.4 5.4,-14.2 0,-19.6 l -37.4,-37.6 c -2.6,-2.6 -6.1,-4 -9.8,-4 -3.7,0 -7.2,1.5 -9.8,4 l -130.9,129.6 L 61.050006,4.1 c -2.6,-2.6 -6.1,-4 -9.8,-4 -3.7,0 -7.2,1.5 -9.8,4 L 4.1500061,41.7 c -5.4,5.4 -5.4,14.2 0,19.6 L 135.65001,191.3 4.5500061,322.9 c -2.6,2.6 -4.1,6.1 -4.1,9.8 0,3.7 1.4,7.2 4.1,9.8 l 37.3999999,37.6 c 2.7,2.7 6.2,4.1 9.8,4.1 3.5,0 7.1,-1.3 9.8,-4.1 l 130.600004,-131.2 130.7,131.1 c 2.7,2.7 6.2,4.1 9.8,4.1 3.5,0 7.1,-1.3 9.8,-4.1 l 37.4,-37.6 c 2.6,-2.6 4.1,-6.1 4.1,-9.8 -0.1,-3.6 -1.6,-7.1 -4.2,-9.7 z"
     id="path1"
     style="fill:#ffffff;fill-opacity:1" /></svg>
