<?xml version="1.0" encoding="UTF-8" standalone="no"?>
<svg
   height="384"
   id="Layer_1"
   version="1.1"
   viewBox="0 0 384 384"
   width="384"
   xml:space="preserve"
   sodipodi:docname="pause-icon.svg"
   inkscape:version="1.3.1 (91b66b0783, 2023-11-16)"
   xmlns:inkscape="http://www.inkscape.org/namespaces/inkscape"
   xmlns:sodipodi="http://sodipodi.sourceforge.net/DTD/sodipodi-0.dtd"
   xmlns="http://www.w3.org/2000/svg"
   xmlns:svg="http://www.w3.org/2000/svg"><defs
     id="defs2" /><sodipodi:namedview
     id="namedview2"
     pagecolor="#ffffff"
     bordercolor="#000000"
     borderopacity="0.25"
     inkscape:showpageshadow="2"
     inkscape:pageopacity="0.0"
     inkscape:pagecheckerboard="0"
     inkscape:deskcolor="#d1d1d1"
     inkscape:zoom="1.5371094"
     inkscape:cx="128.16264"
     inkscape:cy="191.59339"
     inkscape:window-width="1920"
     inkscape:window-height="1001"
     inkscape:window-x="-9"
     inkscape:window-y="-9"
     inkscape:window-maximized="1"
     inkscape:current-layer="Layer_1" /><g
     id="g2"
     transform="translate(-64,-64)"
     style="fill:#ffffff;fill-opacity:1"><path
       d="M 224,435.8 V 76.1 C 224,69.4 218.6,64 211.8,64 H 140.2 C 133.4,64 128,69.4 128,76.1 v 359.7 c 0,6.7 5.4,12.2 12.2,12.2 h 71.6 c 6.8,0 12.2,-5.4 12.2,-12.2 z"
       id="path1"
       style="fill:#ffffff;fill-opacity:1" /><path
       d="M 371.8,64 H 300.2 C 293.5,64 288,69.4 288,76.1 v 359.7 c 0,6.7 5.4,12.2 12.2,12.2 h 71.6 c 6.7,0 12.2,-5.4 12.2,-12.2 V 76.1 C 384,69.4 378.6,64 371.8,64 Z"
       id="path2"
       style="fill:#ffffff;fill-opacity:1" /></g></svg>
