<?xml version="1.0" encoding="UTF-8" standalone="no"?>
<svg
   id="blue_copy"
   version="1.1"
   viewBox="0 0 45.68 45.68"
   xml:space="preserve"
   sodipodi:docname="stop-icon.svg"
   width="45.68"
   height="45.68"
   inkscape:version="1.3.1 (91b66b0783, 2023-11-16)"
   xmlns:inkscape="http://www.inkscape.org/namespaces/inkscape"
   xmlns:sodipodi="http://sodipodi.sourceforge.net/DTD/sodipodi-0.dtd"
   xmlns="http://www.w3.org/2000/svg"
   xmlns:svg="http://www.w3.org/2000/svg"><defs
     id="defs3" /><sodipodi:namedview
     id="namedview3"
     pagecolor="#ffffff"
     bordercolor="#000000"
     borderopacity="0.25"
     inkscape:showpageshadow="2"
     inkscape:pageopacity="0.0"
     inkscape:pagecheckerboard="0"
     inkscape:deskcolor="#d1d1d1"
     inkscape:clip-to-page="false"
     inkscape:zoom="11.129861"
     inkscape:cx="24.259064"
     inkscape:cy="28.347165"
     inkscape:window-width="1920"
     inkscape:window-height="1001"
     inkscape:window-x="-9"
     inkscape:window-y="-9"
     inkscape:window-maximized="1"
     inkscape:current-layer="blue_copy" /><g
     id="Layer_6_copy"
     style="fill:#ffffff;fill-opacity:1;stroke:none"
     transform="translate(-26.66,-27.16)"><path
       d="M 68.251,72.84 H 30.749 c -2.258,0 -4.089,-1.831 -4.089,-4.089 V 31.249 c 0,-2.258 1.831,-4.089 4.089,-4.089 h 37.502 c 2.258,0 4.089,1.831 4.089,4.089 v 37.502 c 0,2.258 -1.831,4.089 -4.089,4.089 z"
       id="path1"
       style="fill:#ffffff;fill-opacity:1;stroke:none" /><path
       d="m 68.993,27.235 c 0.821,0.748 1.346,1.815 1.346,3.014 v 37.502 c 0,2.258 -1.831,4.089 -4.089,4.089 H 28.749 c -0.254,0 -0.501,-0.03 -0.742,-0.075 0.726,0.661 1.683,1.075 2.742,1.075 h 37.502 c 2.258,0 4.089,-1.831 4.089,-4.089 V 31.249 c 0,-2.004 -1.444,-3.664 -3.347,-4.014 z"
       id="path2"
       style="fill:#ffffff;fill-opacity:1;stroke:none" /><path
       d="M 68.251,72.84 H 30.749 c -2.258,0 -4.089,-1.831 -4.089,-4.089 V 31.249 c 0,-2.258 1.831,-4.089 4.089,-4.089 h 37.502 c 2.258,0 4.089,1.831 4.089,4.089 v 37.502 c 0,2.258 -1.831,4.089 -4.089,4.089 z"
       style="fill:#ffffff;fill-opacity:1;stroke:none"
       id="path3" /></g></svg>
